<svg xmlns="http://www.w3.org/2000/svg" width="1024" height="1024" viewBox="0 0 1024 1024">
  <defs>
    <linearGradient id="fire-grad" x1="0%" y1="0%" x2="100%" y2="100%">
      <stop offset="0%" stop-color="#ef4444" />
      <stop offset="100%" stop-color="#f97316" />
    </linearGradient>
    <linearGradient id="rain-grad" x1="0%" y1="0%" x2="100%" y2="100%">
      <stop offset="0%" stop-color="#3b82f6" />
      <stop offset="100%" stop-color="#60a5fa" />
    </linearGradient>
    <linearGradient id="wave-grad" x1="0%" y1="0%" x2="100%" y2="100%">
      <stop offset="0%" stop-color="#06b6d4" />
      <stop offset="100%" stop-color="#0ea5e9" />
    </linearGradient>
    <linearGradient id="wind-grad" x1="0%" y1="0%" x2="100%" y2="100%">
      <stop offset="0%" stop-color="#64748b" />
      <stop offset="100%" stop-color="#94a3b8" />
    </linearGradient>
    <clipPath id="shield-clip">
      <path d="M256 32C256 32 448 64 448 192C448 352 256 480 256 480C256 480 64 352 64 192C64 64 256 32 256 32Z" />
    </clipPath>
    <mask id="shield-mask">
      <path d="M256 32C256 32 448 64 448 192C448 352 256 480 256 480C256 480 64 352 64 192C64 64 256 32 256 32Z" fill="#ffffff" />
    </mask>
  </defs>

  <rect width="1024" height="1024" fill="#0a0f1a" />

  <g transform="translate(512 512) scale(1.5) translate(-256 -256)">
    <g mask="url(#shield-mask)">
      <rect x="0" y="0" width="256" height="256" fill="url(#fire-grad)" />
      <rect x="256" y="0" width="256" height="256" fill="url(#rain-grad)" />
      <rect x="0" y="256" width="256" height="256" fill="url(#wave-grad)" />
      <rect x="256" y="256" width="256" height="256" fill="url(#wind-grad)" />
      <path d="M128 100 Q160 140 128 180 Q96 140 128 100" fill="#fff" opacity="0.6" />
      <circle cx="384" cy="120" r="20" fill="#fff" opacity="0.6" />
      <circle cx="350" cy="150" r="10" fill="#fff" opacity="0.6" />
      <circle cx="410" cy="150" r="10" fill="#fff" opacity="0.6" />
      <path d="M64 384 Q128 320 192 384" stroke="#fff" stroke-width="12" stroke-linecap="round" opacity="0.6" />
      <path d="M320 320 L448 320 M340 360 L428 360 M360 400 L408 400" stroke="#fff" stroke-width="12" stroke-linecap="round" opacity="0.6" />
    </g>
    <line x1="256" y1="32" x2="256" y2="480" stroke="#0f172a" stroke-width="12" />
    <line x1="64" y1="256" x2="448" y2="256" stroke="#0f172a" stroke-width="12" />
    <path d="M256 32C256 32 448 64 448 192C448 352 256 480 256 480C256 480 64 352 64 192C64 64 256 32 256 32Z" fill="none" stroke="#f8fafc" stroke-width="24" stroke-linejoin="round" />
    <circle cx="256" cy="256" r="80" fill="#0f172a" stroke="#f8fafc" stroke-width="12" />
    <circle cx="256" cy="225" r="24" fill="#f8fafc" />
    <path d="M196 305 C196 270 316 270 316 305 Z" fill="#f8fafc" />
  </g>
</svg>